<svg width="353" height="300" viewBox="0 0 353 300" fill="none" xmlns="http://www.w3.org/2000/svg">
<g filter="url(#filter0_di_609_69)">
<path d="M190.399 0.12962C182.899 -3.37038 32.3987 65.1296 31.3986 70.1296C30.3986 75.1296 188.899 278.13 192.899 279.13C196.899 280.13 349.398 200.13 351.399 199.63C353.399 199.13 197.899 3.62962 190.399 0.12962Z" fill="url(#paint0_linear_609_69)"/>
<path d="M30.8986 80.6296C30.8986 76.6296 29.8986 74.1296 31.3986 70.1296L192.899 279.13C193.399 280.63 192.899 286.63 190.399 288.63C187.899 290.63 30.8986 84.6296 30.8986 80.6296Z" fill="url(#paint1_linear_609_69)"/>
<path d="M351.399 199.63C354.399 196.13 194.399 277.63 192.899 279.13C191.399 280.63 190.399 288.63 190.399 288.63L351.399 208.63C351.399 208.63 348.399 203.13 351.399 199.63Z" fill="url(#paint2_linear_609_69)" stroke="#C2C2C2"/>
</g>
<g filter="url(#filter1_di_609_69)">
<path d="M172.936 74.6296C169.937 74.6296 86.8773 110.633 88.9362 113.63C90.9952 116.626 199.437 267.13 204.436 267.13C209.436 267.13 292.436 225.626 292.436 221.13C292.436 216.633 175.936 74.6296 172.936 74.6296Z" fill="#E7AB8B"/>
</g>
<path d="M60.3805 75.9561L59.702 68.4616L62.83 66.8824L63.0463 67.3109C62.8106 67.4298 62.6304 67.5522 62.5057 67.6779C62.3845 67.7929 62.3153 67.9309 62.298 68.0919C62.2807 68.253 62.3119 68.4479 62.3915 68.6765C62.4746 68.8944 62.5973 69.1641 62.7596 69.4855L64.858 73.6418C65.0382 73.9989 65.1949 74.2737 65.3281 74.4664C65.4612 74.6591 65.5994 74.7909 65.7428 74.8619C65.8862 74.9329 66.0455 74.9466 66.2206 74.903C66.4029 74.8558 66.628 74.769 66.8958 74.6428L67.1121 75.0713L63.0843 77.1048L62.868 76.6763C63.1286 76.5357 63.3285 76.408 63.4676 76.2929C63.6102 76.1671 63.6973 76.0291 63.7289 75.8787C63.7677 75.7247 63.7527 75.5441 63.6839 75.3368C63.6115 75.1224 63.4906 74.8474 63.3211 74.5118L60.7901 69.4985L60.7365 69.5255L61.4352 78.0718L60.6425 78.472L54.0842 72.884L54.0414 72.9057L56.5346 77.844C56.7149 78.201 56.8716 78.4759 57.0047 78.6686C57.1378 78.8613 57.2761 78.9931 57.4194 79.0641C57.5628 79.1351 57.7221 79.1488 57.8972 79.1052C58.0795 79.058 58.3046 78.9712 58.5724 78.845L58.7887 79.2735L55.4894 80.9392L55.2731 80.5107C55.5337 80.3702 55.7371 80.2406 55.8833 80.1219C56.026 79.9962 56.1131 79.8581 56.1447 79.7077C56.1835 79.5537 56.1684 79.3731 56.0997 79.1659C56.0273 78.9515 55.9063 78.6765 55.7369 78.3408L53.5628 74.0345C53.4114 73.7346 53.2709 73.4918 53.1414 73.3063C53.0118 73.1207 52.879 72.9907 52.7427 72.9161C52.6029 72.8343 52.4471 72.8099 52.2755 72.8428C52.1075 72.8649 51.902 72.9372 51.6592 73.0598L51.4429 72.6313L54.6887 70.9926L60.3376 75.9777L60.3805 75.9561ZM72.4695 71.1164C72.191 72.18 71.5661 72.957 70.5949 73.4474C70.1521 73.6709 69.7143 73.8068 69.2816 73.855C68.8524 73.8924 68.4462 73.8511 68.0629 73.7309C67.676 73.6036 67.3228 73.4011 67.0033 73.1232C66.6838 72.8454 66.4159 72.4923 66.1996 72.0638C65.9761 71.621 65.8473 71.1797 65.8134 70.7397C65.7759 70.2927 65.8261 69.8685 65.9641 69.4673C66.1056 69.0553 66.3242 68.6805 66.6198 68.3431C66.9226 68.002 67.299 67.7179 67.7489 67.4908C68.5059 67.1086 69.1978 67.0147 69.8247 67.209C70.4515 67.4034 70.9506 67.8683 71.322 68.6039C71.3797 68.7181 71.3979 68.7986 71.3766 68.8452C71.3517 68.8846 71.2571 68.9458 71.0929 69.0287L67.6436 70.7702C67.6474 70.8489 67.6926 70.9739 67.7792 71.1453C68.1325 71.8452 68.5619 72.3229 69.0674 72.5786C69.58 72.8306 70.0969 72.825 70.6182 72.5618C70.9182 72.4104 71.1803 72.1929 71.4046 71.9094C71.636 71.6223 71.8279 71.2834 71.9802 70.8929L72.4695 71.1164ZM68.9689 69.3483C69.2546 69.204 69.4295 69.0978 69.4936 69.0296C69.5613 68.9506 69.5645 68.8504 69.5032 68.729C69.3446 68.4148 69.1255 68.2028 68.846 68.0929C68.5665 67.9831 68.2911 67.9967 68.0197 68.1337C67.7126 68.2888 67.5026 68.5561 67.3896 68.9358C67.2801 69.3047 67.2888 69.7036 67.4157 70.1324L68.9689 69.3483ZM75.3256 68.7334C75.4734 69.0262 75.5977 69.2547 75.6985 69.4189C75.8029 69.5723 75.9071 69.6811 76.0111 69.7451C76.1186 69.7983 76.2403 69.8086 76.3761 69.7758C76.5191 69.7395 76.7013 69.6744 76.9227 69.5805L77.1391 70.009L73.7647 71.7126L73.5484 71.2841C73.7483 71.1653 73.9017 71.0609 74.0087 70.9711C74.1228 70.8776 74.1904 70.7718 74.2114 70.6536C74.2396 70.5319 74.2247 70.387 74.1668 70.2191C74.1089 70.0512 74.0114 69.8315 73.8744 69.5602L73.1984 68.2211C72.9857 67.7998 72.8073 67.4642 72.6632 67.2143C72.5155 66.9573 72.4075 66.7878 72.3392 66.7057C72.2709 66.6237 72.2045 66.5631 72.1399 66.524C72.0718 66.4778 71.9948 66.4584 71.909 66.4659C71.8195 66.4663 71.7194 66.4899 71.6087 66.5368C71.4944 66.5766 71.3551 66.638 71.1908 66.7209L71.0069 66.3567L72.8689 64.9059L73.4841 65.7782L73.5269 65.7566C73.6112 65.3377 73.7725 64.965 74.0109 64.6385C74.2494 64.312 74.5614 64.0514 74.9471 63.8567C75.4041 63.6259 75.8043 63.5045 76.1478 63.4924C76.4947 63.4696 76.8528 63.5487 77.222 63.7298C77.4263 63.8327 77.6416 63.9929 77.8679 64.2102C78.0905 64.4205 78.3172 64.7541 78.5479 65.2112L79.3105 66.7216C79.4583 67.0144 79.5826 67.2429 79.6835 67.407C79.7878 67.5605 79.892 67.6692 79.996 67.7332C80.1035 67.7864 80.2252 67.7967 80.361 67.764C80.4969 67.7313 80.6719 67.6697 80.8862 67.5795L81.1026 68.008L77.7497 69.7007L77.5333 69.2722C77.744 69.1569 77.9028 69.0544 78.0098 68.9645C78.1203 68.8639 78.186 68.7545 78.2071 68.6364C78.2281 68.5182 78.2096 68.3752 78.1517 68.2073C78.0902 68.0322 77.9928 67.8125 77.8594 67.5483L77.1238 66.0914C76.94 65.7272 76.7635 65.431 76.5945 65.2026C76.4254 64.9743 76.2531 64.8104 76.0774 64.7109C75.9052 64.6007 75.7243 64.5531 75.5348 64.5681C75.3416 64.576 75.1272 64.6395 74.8915 64.7585C74.663 64.8738 74.4991 65.0373 74.3997 65.2487C74.3003 65.4602 74.2477 65.7109 74.2416 66.0007C74.2423 66.1617 74.2698 66.3583 74.3244 66.5907C74.3825 66.8123 74.4675 67.0338 74.5792 67.2552L75.3256 68.7334ZM84.2389 61.5045C84.0947 61.2189 83.974 60.9975 83.8768 60.8405C83.776 60.6763 83.6718 60.5676 83.5642 60.5143C83.4531 60.4539 83.326 60.4419 83.1831 60.4782C83.0436 60.5038 82.8614 60.56 82.6363 60.6467L82.42 60.2182L84.841 58.996L86.4796 62.2418C86.6996 62.6774 86.8762 63.0184 87.0095 63.2647C87.1464 63.5003 87.2598 63.6716 87.3496 63.7786C87.4179 63.8606 87.4808 63.923 87.5382 63.9657C87.592 64.0013 87.6601 64.0207 87.7424 64.024C87.8211 64.0201 87.9176 63.9982 88.0319 63.9584C88.1498 63.9079 88.298 63.8375 88.4765 63.7474L88.6874 64.1652L86.6206 65.37L86.0214 64.4761L85.9786 64.4977C85.9443 64.8914 85.8009 65.2551 85.5481 65.5888C85.2954 65.9225 84.9619 66.1939 84.5477 66.403C83.7836 66.7888 83.0646 66.8113 82.3906 66.4705C81.8744 66.2113 81.4234 65.6996 81.0376 64.9355L80.3075 63.4894C80.1597 63.1966 80.0372 62.9716 79.94 62.8146C79.8392 62.6504 79.735 62.5417 79.6275 62.4884C79.5271 62.4316 79.4089 62.4195 79.2731 62.4523C79.1337 62.4778 78.9514 62.534 78.7264 62.6207L78.51 62.1923L80.9096 60.9808L82.4401 64.0124C82.8043 64.7336 83.1585 65.2135 83.5029 65.4518C83.8437 65.6831 84.2105 65.6995 84.6033 65.5012C85.0246 65.2885 85.2522 64.9316 85.286 64.4306C85.3271 63.9439 85.1655 63.3399 84.8014 62.6186L84.2389 61.5045Z" fill="#B7B7B7" style="mix-blend-mode:multiply"/>
<path d="M110.509 123.171C110.383 123.232 110.286 123.193 110.219 123.055L107.168 116.756C107.112 116.642 107.136 116.56 107.238 116.511L109.101 115.608C109.167 115.576 109.219 115.562 109.258 115.565C109.296 115.569 109.338 115.593 109.382 115.638L112.568 118.751C112.612 118.796 112.646 118.813 112.67 118.801C112.691 118.784 112.699 118.747 112.694 118.69L112.198 114.363C112.167 114.208 112.2 114.107 112.296 114.06L114.23 113.123C114.32 113.08 114.392 113.112 114.444 113.22L117.496 119.519C117.565 119.663 117.525 119.772 117.375 119.844L116.214 120.407C116.142 120.442 116.084 120.451 116.04 120.436C116.001 120.418 115.967 120.378 115.938 120.318L113.767 115.837C113.747 115.795 113.726 115.782 113.705 115.8C113.687 115.809 113.682 115.837 113.69 115.885L114.3 121.157C114.31 121.27 114.27 121.349 114.18 121.392L113.433 121.754C113.331 121.803 113.242 121.787 113.166 121.706L109.455 118.014C109.411 117.969 109.378 117.955 109.357 117.973C109.342 117.987 109.346 118.019 109.369 118.067L111.51 122.486C111.539 122.546 111.547 122.593 111.535 122.629C111.529 122.662 111.492 122.694 111.426 122.726L110.509 123.171ZM118.983 116.621C119.091 116.843 119.237 117.016 119.424 117.141C119.613 117.257 119.818 117.32 120.039 117.332C120.262 117.335 120.485 117.282 120.707 117.175C120.923 117.07 121.099 116.929 121.236 116.752C121.375 116.566 121.485 116.32 121.567 116.014C121.579 115.978 121.594 115.956 121.612 115.947C121.627 115.933 121.665 115.926 121.724 115.926L122.503 115.883C122.605 115.878 122.643 115.934 122.617 116.049C122.559 116.418 122.464 116.735 122.333 116.999C122.201 117.262 122.024 117.493 121.801 117.69C121.581 117.878 121.312 118.049 120.994 118.203C120.526 118.429 120.059 118.529 119.595 118.503C119.13 118.476 118.702 118.335 118.312 118.08C117.924 117.815 117.617 117.449 117.391 116.981C117.141 116.465 117.032 115.966 117.065 115.483C117.101 114.992 117.251 114.552 117.516 114.165C117.78 113.778 118.131 113.478 118.569 113.266C119.031 113.042 119.485 112.948 119.932 112.983C120.376 113.013 120.787 113.166 121.165 113.442C121.549 113.715 121.871 114.118 122.13 114.652C122.161 114.718 122.18 114.772 122.186 114.814C122.191 114.856 122.156 114.899 122.081 114.943L119.021 116.425C118.985 116.442 118.964 116.467 118.958 116.5C118.951 116.533 118.96 116.573 118.983 116.621ZM120.356 114.845C120.422 114.813 120.461 114.787 120.473 114.766C120.483 114.739 120.474 114.699 120.448 114.645C120.375 114.495 120.265 114.359 120.118 114.238C119.976 114.114 119.812 114.034 119.624 113.999C119.44 113.955 119.243 113.984 119.033 114.086C118.835 114.182 118.681 114.315 118.572 114.487C118.462 114.659 118.407 114.852 118.408 115.066C118.405 115.275 118.456 115.487 118.561 115.703L120.356 114.845ZM124.189 116.544C124.063 116.605 123.971 116.575 123.913 116.455L121.773 112.036C121.717 111.922 121.738 111.842 121.834 111.796L122.923 111.268C123.013 111.224 123.083 111.254 123.132 111.356L123.346 111.797C123.363 111.833 123.384 111.852 123.407 111.856C123.431 111.859 123.452 111.834 123.471 111.78C123.557 111.561 123.652 111.359 123.756 111.176C123.86 110.992 123.984 110.828 124.129 110.684C124.274 110.54 124.445 110.419 124.643 110.324C125.081 110.111 125.489 110.073 125.866 110.209C126.249 110.342 126.545 110.625 126.754 111.057L128.315 114.279C128.384 114.423 128.347 114.529 128.203 114.599L127.204 115.083C127.144 115.112 127.094 115.122 127.052 115.112C127.013 115.094 126.978 115.052 126.946 114.986L125.473 111.944C125.374 111.74 125.241 111.612 125.075 111.559C124.912 111.497 124.722 111.519 124.506 111.623C124.38 111.684 124.273 111.762 124.186 111.856C124.098 111.951 124.023 112.065 123.962 112.198C123.898 112.325 123.839 112.48 123.786 112.661L125.286 115.757C125.353 115.895 125.308 116.002 125.152 116.077L124.189 116.544ZM130.892 112.174C131.078 112.084 131.229 111.952 131.344 111.778C131.463 111.594 131.553 111.391 131.616 111.168L130.103 108.045C130.036 107.907 130.081 107.801 130.237 107.725L131.209 107.254C131.335 107.193 131.428 107.226 131.489 107.352L133.612 111.779C133.664 111.887 133.642 111.964 133.546 112.011L132.475 112.53C132.385 112.573 132.316 112.544 132.266 112.442L132.053 112.001C132.035 111.965 132.016 111.948 131.995 111.951C131.971 111.948 131.952 111.969 131.936 112.013C131.809 112.393 131.647 112.701 131.451 112.937C131.257 113.164 131.019 113.346 130.737 113.483C130.473 113.611 130.209 113.669 129.943 113.656C129.684 113.641 129.442 113.555 129.218 113.397C128.99 113.233 128.804 113.001 128.658 112.701L127.111 109.506C127.041 109.362 127.078 109.255 127.222 109.185L128.221 108.702C128.335 108.646 128.422 108.682 128.483 108.808L129.948 111.832C130.044 112.03 130.175 112.162 130.341 112.23C130.511 112.289 130.694 112.27 130.892 112.174Z" fill="#B7B7B7" style="mix-blend-mode:multiply"/>
<line x1="111.681" y1="130.18" x2="173.681" y2="100.18" stroke="#A7A7A7" style="mix-blend-mode:multiply"/>
<path d="M113.533 131.25L173.204 102.125L176.179 106.725L116.416 135.698L113.533 131.25Z" fill="#CECECE" fill-opacity="0.22" style="mix-blend-mode:multiply"/>
<path d="M118.399 136.827L178.07 107.702L181.044 112.303L121.282 141.275L118.399 136.827Z" fill="#CECECE" fill-opacity="0.22" style="mix-blend-mode:multiply"/>
<defs>
<filter id="filter0_di_609_69" x="19.5721" y="0" width="332.514" height="299.492" filterUnits="userSpaceOnUse" color-interpolation-filters="sRGB">
<feFlood flood-opacity="0" result="BackgroundImageFix"/>
<feColorMatrix in="SourceAlpha" type="matrix" values="0 0 0 0 0 0 0 0 0 0 0 0 0 0 0 0 0 0 127 0" result="hardAlpha"/>
<feOffset dx="-7" dy="6"/>
<feGaussianBlur stdDeviation="2"/>
<feComposite in2="hardAlpha" operator="out"/>
<feColorMatrix type="matrix" values="0 0 0 0 0.197884 0 0 0 0 0.197884 0 0 0 0 0.197884 0 0 0 0.25 0"/>
<feBlend mode="normal" in2="BackgroundImageFix" result="effect1_dropShadow_609_69"/>
<feBlend mode="normal" in="SourceGraphic" in2="effect1_dropShadow_609_69" result="shape"/>
<feColorMatrix in="SourceAlpha" type="matrix" values="0 0 0 0 0 0 0 0 0 0 0 0 0 0 0 0 0 0 127 0" result="hardAlpha"/>
<feOffset dy="4"/>
<feGaussianBlur stdDeviation="3"/>
<feComposite in2="hardAlpha" operator="arithmetic" k2="-1" k3="1"/>
<feColorMatrix type="matrix" values="0 0 0 0 0 0 0 0 0 0 0 0 0 0 0 0 0 0 0.25 0"/>
<feBlend mode="hard-light" in2="shape" result="effect2_innerShadow_609_69"/>
</filter>
<filter id="filter1_di_609_69" x="77.8986" y="74.6296" width="214.538" height="200.5" filterUnits="userSpaceOnUse" color-interpolation-filters="sRGB">
<feFlood flood-opacity="0" result="BackgroundImageFix"/>
<feColorMatrix in="SourceAlpha" type="matrix" values="0 0 0 0 0 0 0 0 0 0 0 0 0 0 0 0 0 0 127 0" result="hardAlpha"/>
<feOffset dx="-7" dy="4"/>
<feGaussianBlur stdDeviation="2"/>
<feComposite in2="hardAlpha" operator="out"/>
<feColorMatrix type="matrix" values="0 0 0 0 0 0 0 0 0 0 0 0 0 0 0 0 0 0 0.25 0"/>
<feBlend mode="normal" in2="BackgroundImageFix" result="effect1_dropShadow_609_69"/>
<feBlend mode="normal" in="SourceGraphic" in2="effect1_dropShadow_609_69" result="shape"/>
<feColorMatrix in="SourceAlpha" type="matrix" values="0 0 0 0 0 0 0 0 0 0 0 0 0 0 0 0 0 0 127 0" result="hardAlpha"/>
<feOffset dy="4"/>
<feGaussianBlur stdDeviation="2"/>
<feComposite in2="hardAlpha" operator="arithmetic" k2="-1" k3="1"/>
<feColorMatrix type="matrix" values="0 0 0 0 0.482601 0 0 0 0 0.476388 0 0 0 0 0.476388 0 0 0 0.25 0"/>
<feBlend mode="normal" in2="shape" result="effect2_innerShadow_609_69"/>
</filter>
<linearGradient id="paint0_linear_609_69" x1="190.899" y1="-0.370379" x2="170.399" y2="266.63" gradientUnits="userSpaceOnUse">
<stop stop-color="#4482D8"/>
<stop offset="1" stop-color="#6A9CFF"/>
</linearGradient>
<linearGradient id="paint1_linear_609_69" x1="111.863" y1="71.1296" x2="111.863" y2="288.644" gradientUnits="userSpaceOnUse">
<stop stop-color="#3668AD"/>
<stop offset="1" stop-color="#4482D8"/>
</linearGradient>
<linearGradient id="paint2_linear_609_69" x1="246.899" y1="313.63" x2="260.899" y2="90.6296" gradientUnits="userSpaceOnUse">
<stop stop-color="#8F8F8F"/>
<stop offset="1" stop-color="#757575"/>
</linearGradient>
</defs>
</svg>
